<?xml version="1.0" encoding="UTF-8" standalone="no"?>
<!-- Created with Inkscape (http://www.inkscape.org/) -->

<svg
   width="95.25mm"
   height="84.402084mm"
   viewBox="0 0 95.25 84.402084"
   version="1.1"
   id="svg1"
   xml:space="preserve"
   inkscape:version="1.3.1 (9b9bdc1480, 2023-11-25, custom)"
   sodipodi:docname="sandwitch.svg"
   xmlns:inkscape="http://www.inkscape.org/namespaces/inkscape"
   xmlns:sodipodi="http://sodipodi.sourceforge.net/DTD/sodipodi-0.dtd"
   xmlns="http://www.w3.org/2000/svg"
   xmlns:svg="http://www.w3.org/2000/svg"><sodipodi:namedview
     id="namedview1"
     pagecolor="#505050"
     bordercolor="#ffffff"
     borderopacity="1"
     inkscape:showpageshadow="0"
     inkscape:pageopacity="0"
     inkscape:pagecheckerboard="1"
     inkscape:deskcolor="#d1d1d1"
     inkscape:document-units="mm"
     inkscape:zoom="2.0560856"
     inkscape:cx="144.69242"
     inkscape:cy="148.34013"
     inkscape:window-width="1920"
     inkscape:window-height="1016"
     inkscape:window-x="0"
     inkscape:window-y="0"
     inkscape:window-maximized="1"
     inkscape:current-layer="layer1"
     showgrid="false"
     inkscape:export-bgcolor="#ffffff00" /><defs
     id="defs1" /><g
     inkscape:label="Layer 1"
     inkscape:groupmode="layer"
     id="layer1"
     transform="translate(-48.355839,-55.608777)"><path
       style="fill:#000000"
       d="M 48.355839,100.45565 V 55.608777 h 47.625004 47.624997 v 44.846873 39.55521 H 95.980843 48.355839 Z m 94.655561,0.0661 -0.067,-44.251563 H 95.980843 49.017297 l -0.06702,44.251563 -0.06702,38.9599 h 47.097586 47.097577 z m -73.117211,32.2069 c -0.09216,-0.3672 -0.393695,-0.82602 -0.670077,-1.0196 -0.458689,-0.32128 -0.511992,-0.81621 -0.611218,-5.67527 -0.05979,-2.92781 -0.178093,-5.43556 -0.262899,-5.57277 -0.08481,-0.13722 -0.03722,-0.55714 0.105736,-0.93315 0.283313,-0.74517 1.027713,-0.88661 2.240176,-0.42563 0.648964,0.24674 0.678683,0.2172 0.678683,-0.6746 0,-2.72922 2.22926,-3.89684 4.124286,-2.16018 0.828611,0.75936 0.958088,1.05284 1.079727,2.44739 0.119256,1.36724 0.06076,1.66621 -0.42654,2.17988 -0.310615,0.32742 -0.857772,0.59531 -1.215905,0.59531 -0.358133,0 -0.651151,0.0848 -0.651151,0.18842 0,0.10363 0.49453,0.69231 1.098956,1.30818 0.925569,0.94309 1.218445,1.09586 1.856296,0.96829 0.941586,-0.18832 3.879567,0.81522 4.505961,1.53912 0.520629,0.60167 0.372199,1.21203 -0.46392,1.90768 -0.525436,0.43716 -0.572857,0.66865 -0.457368,2.2327 0.104852,1.41999 0.0472,1.80466 -0.309577,2.06554 -0.241133,0.17632 -0.457256,0.5706 -0.480274,0.87616 -0.06677,0.88633 -1.074392,0.71918 -1.435752,-0.23817 -0.315637,-0.83622 -0.31033,-0.83468 -2.991406,-0.86815 -3.561791,-0.0445 -3.965379,0.0311 -4.256434,0.79662 -0.473144,1.24446 -1.202878,1.47592 -1.4573,0.46223 z m 0.951234,-0.65529 c 0,-0.14552 -0.119062,-0.26458 -0.264583,-0.26458 -0.145521,0 -0.264583,0.11906 -0.264583,0.26458 0,0.14552 0.119062,0.26459 0.264583,0.26459 0.145521,0 0.264583,-0.11907 0.264583,-0.26459 z m 8.73125,0 c 0,-0.14552 -0.119062,-0.26458 -0.264583,-0.26458 -0.145521,0 -0.264583,0.11906 -0.264583,0.26458 0,0.14552 0.119062,0.26459 0.264583,0.26459 0.145521,0 0.264583,-0.11907 0.264583,-0.26459 z m -4.720928,-1.20331 c 0.677708,-0.0422 2.143692,0.045 3.257741,0.1939 1.11405,0.14887 2.090146,0.20607 2.169104,0.12711 0.07896,-0.079 0.06281,-0.83934 -0.03589,-1.68973 l -0.179452,-1.54616 -2.584217,0.10379 -2.584217,0.1038 -0.991831,-0.87084 c -0.836587,-0.73453 -0.967915,-0.99042 -0.839036,-1.63481 0.167791,-0.83896 -0.164653,-2.64067 -0.798316,-4.32656 -0.418674,-1.1139 -1.610619,-1.95719 -2.766389,-1.95719 -0.518894,0 -0.527398,0.12475 -0.389345,5.71147 0.07762,3.14131 0.216131,5.83281 0.307793,5.98113 0.106986,0.1731 0.889056,0.20005 2.18426,0.0753 1.10968,-0.10692 2.572089,-0.22895 3.249797,-0.27117 z m 6.025591,-3.93954 c 0.301081,-0.27248 0.547421,-0.66163 0.547421,-0.86478 0,-0.41345 -1.23574,-0.99497 -2.917109,-1.37275 -1.371844,-0.30823 -1.063883,0.0162 0.4735,0.49881 1.2991,0.40782 1.874652,0.94178 1.460999,1.35543 -0.186632,0.18663 -0.503161,0.0583 -1.00638,-0.40809 -0.403763,-0.37419 -1.026156,-0.68035 -1.383097,-0.68035 -0.35694,0 -1.054918,-0.19263 -1.551061,-0.42806 -0.749261,-0.35555 -1.034687,-0.37314 -1.68486,-0.10383 -1.520435,0.62978 -1.631324,1.36781 -0.331059,2.20337 1.041573,0.66933 5.588337,0.52723 6.391646,-0.19975 z m -7.076989,-2.85197 c -0.189855,-0.18986 -0.31309,-0.20548 -0.31309,-0.0397 0,0.35316 0.312899,0.66606 0.489479,0.48948 0.07519,-0.0752 -0.0042,-0.27759 -0.176389,-0.44979 z m 1.210268,-0.65625 c -0.802501,-0.8025 -1.040576,-0.76269 -0.707294,0.11826 0.141968,0.37526 0.446195,0.59531 0.823042,0.59531 0.5921,0 0.590991,-0.007 -0.115748,-0.71357 z m -2.019693,-2.2674 c -0.261307,-0.25936 -0.291698,-0.22897 -0.148113,0.14811 0.09936,0.26094 0.247304,0.40778 0.328766,0.32632 0.08146,-0.0815 1.68e-4,-0.29495 -0.180653,-0.47443 z m 2.658314,-0.63191 c 1.231075,-1.11411 -0.228079,-4.5892 -1.926956,-4.5892 -0.76418,0 -1.568056,0.88871 -1.73241,1.91522 -0.143425,0.89581 -0.05818,1.08938 0.902961,2.05053 1.147438,1.14743 1.971462,1.33381 2.756405,0.62345 z m 31.031044,11.08736 c -0.22318,-1.05061 -1.74081,-5.45184 -1.96595,-5.70134 -0.19747,-0.21886 -1.33411,2.70783 -1.90595,4.90759 -0.17969,0.69123 -0.42108,1.25677 -0.53642,1.25677 -0.35312,0 -0.24968,-0.45217 0.89779,-3.92459 0.80557,-2.43777 1.12757,-3.8744 1.1811,-5.26968 0.0405,-1.05502 0.0292,-1.91823 -0.025,-1.91823 -0.0543,0 -0.54859,1.16086 -1.09854,2.57969 -1.0456,2.69757 -1.31098,3.18339 -1.58774,2.90664 -0.16744,-0.16745 1.70842,-5.21963 2.46579,-6.64105 0.33964,-0.63742 0.34604,-0.79444 0.0403,-0.98814 -0.19996,-0.12665 -0.50374,-0.23211 -0.67508,-0.23434 -0.17134,-0.002 -0.57091,-0.33147 -0.88793,-0.73165 -0.50529,-0.63785 -0.56138,-0.96638 -0.45469,-2.66331 0.1755,-2.79131 1.13971,-3.98269 2.94863,-3.64334 1.54809,0.29043 2.01281,0.93907 2.01281,2.80942 0,1.85365 -0.47348,3.15953 -1.48569,4.09762 -0.64264,0.59557 -0.67386,0.70065 -0.29473,0.99199 0.60382,0.46399 3.11856,5.57525 2.86696,5.82717 -0.31163,0.31202 -0.67475,-0.25183 -1.62404,-2.52176 -1.22514,-2.92957 -1.46528,-3.01148 -1.67164,-0.57024 -0.12553,1.48504 -0.0708,2.23084 0.20886,2.84444 0.58624,1.28639 2.26486,6.38124 2.26486,6.87415 0,0.71682 -0.50618,0.50056 -0.67364,-0.28781 z m -0.85258,-14.37928 c 0.75535,-1.01621 0.9603,-3.78199 0.33172,-4.47656 -0.73465,-0.81179 -2.37082,-0.71818 -2.95204,0.16888 -0.6606,1.0082 -0.79753,3.61993 -0.23481,4.47875 0.60375,0.92142 2.11016,0.83117 2.85513,-0.17107 z m -23.238624,13.32938 c -0.245535,-0.40482 -0.645355,-1.03369 -0.88849,-1.39749 -0.799551,-1.19637 -0.846548,-1.32301 -0.489882,-1.32001 0.442158,0.004 2.379941,3.11044 2.062481,3.30664 -0.130724,0.0808 -0.438573,-0.18432 -0.684109,-0.58914 z m -9.740807,-17.86781 c -0.12787,-0.63487 -0.296749,-1.56876 -0.705716,-3.9026 -0.868505,-4.95626 -1.256039,-9.321596 -0.785691,-8.850306 0.13797,0.138236 0.382785,1.620566 0.544033,3.294056 0.305725,3.17293 1.170476,8.82285 1.469753,9.60275 0.09786,0.25503 0.048,0.45142 -0.114626,0.45142 -0.158318,0 -0.341807,-0.26789 -0.407753,-0.59532 z m 33.976481,-2.75526 c 0,-0.27911 0.37356,-1.26525 1.25675,-3.3177 0.72659,-1.6885 0.86443,-0.81568 0.16624,1.0526 -0.61774,1.65298 -1.42299,2.93478 -1.42299,2.2651 z m -0.44679,-7.36359 c -0.73964,-0.51807 -1.03959,-2.23419 -0.56394,-3.226586 0.39445,-0.82301 1.53815,-1.49067 2.15078,-1.25558 1.1025,0.42306 1.19405,2.870516 0.15671,4.189286 -0.6218,0.79049 -0.95355,0.84622 -1.74355,0.29288 z m 1.63062,-0.91436 c 0.62545,-1.20949 0.52255,-2.241346 -0.26559,-2.663146 -0.5823,-0.31164 -0.72714,-0.30032 -1.11458,0.0871 -0.59609,0.5961 -0.52915,2.558716 0.10304,3.020986 0.66206,0.48411 0.82628,0.4269 1.27713,-0.44496 z m 6.15285,1.14992 c -0.10611,-0.10611 -0.19293,-0.4112 -0.19293,-0.67799 0,-0.61357 -1.00643,-0.65719 -1.4413,-0.0625 -0.27609,0.37757 -0.39604,0.34938 -1.1257,-0.26459 -1.00906,-0.84907 -1.13716,-0.85373 -1.13716,-0.0413 0,0.35521 -0.11907,0.71942 -0.26459,0.80936 -0.16676,0.10307 -0.26458,-0.52121 -0.26458,-1.68856 0,-1.018646 0.11906,-1.925666 0.26458,-2.015606 0.14552,-0.0899 0.26459,0.0816 0.26459,0.38126 0,0.69299 0.21184,0.68657 0.97409,-0.0295 0.33622,-0.31587 0.70109,-0.48434 0.8108,-0.37437 0.10971,0.10997 -0.14556,0.49691 -0.56727,0.85988 l -0.76676,0.659926 0.68547,0.68547 0.68547,0.68547 0.31227,-1.24012 c 0.38056,-1.511346 0.71505,-1.761416 1.33386,-0.997226 0.67396,0.832306 1.07954,3.960796 0.42916,3.310416 z m -0.45751,-2.06746 c 0,-0.0609 -0.0723,-0.29899 -0.1606,-0.52917 -0.22686,-0.591176 -0.63315,-0.520176 -0.63315,0.11065 0,0.29398 0.17639,0.52917 0.39687,0.52917 0.21829,0 0.39688,-0.0498 0.39688,-0.11065 z m 2.38026,0.97054 c -5.4e-4,-0.40018 -0.23867,-1.11743 -0.52917,-1.59389 -0.72368,-1.186946 -0.66318,-1.601736 0.12555,-0.860756 l 0.65373,0.61414 0.5281,-0.63417 c 0.29045,-0.34879 0.53205,-0.72347 0.53689,-0.83261 0.0139,-0.31286 0.53797,-0.23123 0.53797,0.0838 0,0.15523 -0.29765,0.67249 -0.66146,1.14946 -0.42677,0.559526 -0.66145,1.210376 -0.66145,1.834426 0,0.53196 -0.11907,0.96721 -0.26459,0.96721 -0.14552,0 -0.26503,-0.32742 -0.26557,-0.72761 z m 1.4931,0.54403 c -0.29797,-0.29797 -0.18147,-0.61017 0.22768,-0.61017 0.21828,0 0.39688,0.11203 0.39688,0.24897 0,0.33363 -0.41317,0.57258 -0.62456,0.3612 z m -5.72544,-7.473716 c 0,-0.13694 0.0947,-0.30751 0.21049,-0.37906 0.11577,-0.0716 0.67576,-1.62639 1.24443,-3.4552 0.56867,-1.82881 1.17361,-3.32511 1.34431,-3.32511 0.32206,0 -1.5625,6.4417 -2.0706,7.07761 -0.31133,0.38964 -0.72863,0.43646 -0.72863,0.0818 z m -41.569237,-8.81301 c -0.147522,-4.27776 0.301312,-9.83132 0.838229,-10.37167 0.322527,-0.32459 0.31916,0.33797 -0.01199,2.36029 -0.142278,0.86888 -0.273882,3.22036 -0.292453,5.22552 -0.01857,2.00517 -0.139597,3.64575 -0.268946,3.64575 -0.12935,0 -0.248526,-0.38695 -0.264835,-0.85989 z m 45.121997,-1.19657 c 0.0928,-0.29236 0.002,-1.01642 -0.2025,-1.60902 -0.20417,-0.5926 -0.30728,-1.14139 -0.22914,-1.21953 0.26957,-0.26957 0.58304,-0.14098 0.58304,0.23919 0,0.69765 0.52643,0.71873 0.7877,0.0315 0.14165,-0.37255 0.37955,-0.67738 0.52867,-0.67738 0.35299,0 0.34852,0.0282 -0.16891,1.06538 -0.24203,0.48515 -0.51298,1.23868 -0.60212,1.67452 -0.0891,0.43583 -0.32033,0.84517 -0.51376,0.90965 -0.24726,0.0824 -0.3016,-0.0406 -0.18298,-0.41434 z m 2.0564,0.15146 c -0.3362,-0.3362 -0.42631,-1.73692 -0.1569,-2.43898 0.17449,-0.45471 1.16232,-0.58553 1.16232,-0.15394 0,0.14553 -0.12201,0.26459 -0.27113,0.26459 -0.46612,0 -0.83927,1.33825 -0.49037,1.75865 0.26258,0.31639 0.37992,0.30646 0.79268,-0.0671 0.74321,-0.6726 0.87061,-1.39823 0.34707,-1.97674 -0.53921,-0.59581 -0.3176,-1.00721 0.27681,-0.51389 0.62663,0.52005 0.49952,1.94085 -0.24555,2.7448 -0.72466,0.78192 -0.95368,0.84384 -1.41493,0.38259 z m 9.525,0 c -0.33569,-0.33569 -0.43443,-1.00542 -0.14823,-1.00542 0.0931,0 0.32272,0.20836 0.51027,0.46303 0.32476,0.44097 0.34955,0.44097 0.5205,0 0.25343,-0.65376 -0.0391,-1.25678 -0.60965,-1.25678 -0.74548,0 -1.14172,-0.52253 -0.83328,-1.09886 0.27679,-0.51719 1.83039,-0.70736 1.83039,-0.22405 0,0.14552 -0.29765,0.26458 -0.66146,0.26458 -0.3638,0 -0.66145,0.11906 -0.66145,0.26458 0,0.14553 0.29538,0.26459 0.65641,0.26459 0.79445,0 1.15384,1.02044 0.70575,2.00388 -0.31875,0.6996 -0.81189,0.82181 -1.30925,0.32445 z m 7.28454,0.11906 c -0.0562,-0.10914 -0.093,-0.91281 -0.0818,-1.78593 0.0141,-1.09792 0.12234,-1.57934 0.35108,-1.56105 0.1819,0.0146 0.68791,0.0443 1.12448,0.0661 0.49532,0.0248 0.79375,0.18265 0.79375,0.41993 0,0.28679 -0.22758,0.34331 -0.92605,0.22996 -0.73124,-0.11866 -0.92604,-0.0623 -0.92604,0.26807 0,0.23009 0.20836,0.55024 0.46302,0.71144 0.33158,0.20988 0.36914,0.33254 0.1323,0.43207 -0.18191,0.0764 -0.33073,0.42672 -0.33073,0.77839 0,0.60158 -0.37544,0.87749 -0.60005,0.44097 z m -25.85829,-1.60954 c 0,-0.89738 0.1071,-1.6316 0.23801,-1.6316 0.26615,0 0.20725,2.81793 -0.0646,3.08977 -0.0954,0.0954 -0.17342,-0.5608 -0.17342,-1.45817 z m 2.38125,0.52232 c 0,-1.40206 -0.21604,-1.88934 -0.83767,-1.88934 -0.28406,0 -0.45138,-0.10532 -0.37182,-0.23405 0.19602,-0.31717 2.33251,-0.6198 2.88335,-0.40842 0.7504,0.28795 0.49063,0.64247 -0.47077,0.64247 h -0.91357 l 0.15244,1.28714 c 0.0974,0.82274 0.0452,1.35342 -0.14476,1.47083 -0.20085,0.12413 -0.2972,-0.15747 -0.2972,-0.86863 z m 12.11038,-0.35858 c 0.18511,-2.01851 0.44026,-2.39766 1.46792,-2.18132 1.17121,0.24655 1.33474,0.48133 0.72169,1.03613 -0.52763,0.4775 -0.52725,0.4812 0.12781,1.2597 0.94786,1.12646 0.49961,1.47628 -0.567,0.44249 -1.03833,-1.00639 -1.12626,-1.49054 -0.32459,-1.7871 0.5274,-0.1951 0.53421,-0.22582 0.088,-0.39702 -0.70567,-0.2708 -0.98604,0.16064 -1.02421,1.57606 -0.0186,0.69016 -0.16526,1.29864 -0.32588,1.35218 -0.1988,0.0663 -0.2511,-0.34918 -0.16379,-1.30112 z m 6.01358,-0.20784 v -1.5875 h 1.12448 c 1.31483,0 1.52388,0.45713 0.26458,0.57855 -0.47294,0.0456 -0.80036,0.20197 -0.7276,0.34749 0.0728,0.14552 0.41224,0.22842 0.75439,0.18422 0.80259,-0.10367 0.63249,0.53934 -0.19431,0.73452 -0.84399,0.19924 -0.82271,0.65376 0.0352,0.75248 1.08595,0.12495 0.87859,0.57774 -0.26458,0.57774 h -0.99219 z m 2.77813,0 c 0,-0.88195 0.11759,-1.5875 0.26458,-1.5875 0.14552,0 0.26458,0.59531 0.26458,1.32291 0,1.2992 0.0145,1.32292 0.80937,1.32292 0.4722,0 0.74124,0.11022 0.64584,0.26458 -0.0899,0.14553 -0.57321,0.26459 -1.07395,0.26459 h -0.91042 z m 4.7625,1.33853 c 0,-0.13693 0.11906,-0.32255 0.26458,-0.41249 0.14552,-0.0899 0.26458,0.0221 0.26458,0.24897 0,0.22687 -0.11906,0.41249 -0.26458,0.41249 -0.14552,0 -0.26458,-0.11204 -0.26458,-0.24897 z m -16.12336,-0.39294 c -0.36387,-0.43843 -0.27169,-2.69937 0.10581,-2.5952 0.13988,0.0386 0.22095,0.5325 0.18015,1.09756 -0.1452,2.01093 1.12454,1.51834 1.45777,-0.56554 0.0879,-0.54949 0.2636,-0.99908 0.39053,-0.99908 0.38867,0 0.24643,1.1305 -0.29128,2.31511 -0.53665,1.18226 -1.24391,1.46899 -1.84298,0.74715 z m 12.53247,-4.31903 c -0.21453,-0.32742 -0.49249,-0.59531 -0.61769,-0.59531 -0.12519,0 -0.3144,0.26789 -0.42047,0.59531 -0.14878,0.45929 -0.24637,0.23258 -0.42708,-0.99219 -0.24361,-1.65105 -0.13994,-2.55543 0.17439,-1.52135 0.23732,0.78075 0.48549,0.75106 1.06075,-0.12689 0.26026,-0.39721 0.51958,-0.58306 0.57626,-0.41301 0.0567,0.17006 -0.0929,0.60834 -0.3325,0.97396 -0.40764,0.62214 -0.40447,0.70748 0.0495,1.33074 0.26678,0.36628 0.57434,0.66971 0.68349,0.67428 0.10914,0.005 0.19843,-0.70606 0.19843,-1.57919 v -1.5875 h 1.19063 c 0.65484,0 1.19062,0.11907 1.19062,0.26459 0,0.14552 -0.41672,0.26458 -0.92604,0.26458 -0.80825,0 -0.92604,0.0831 -0.92604,0.65316 0,0.47188 0.11015,0.61088 0.39687,0.50085 0.21829,-0.0838 0.39688,-0.0332 0.39688,0.11229 0,0.14552 -0.17859,0.33312 -0.39688,0.41688 -0.73519,0.28212 -0.45463,0.96265 0.39688,0.96265 0.45861,0 0.79375,0.13965 0.79375,0.33073 0,0.22092 -0.44355,0.33073 -1.33583,0.33073 -1.09334,0 -1.40663,-0.10806 -1.72589,-0.59531 z m -24.27599,-0.12518 c -0.37295,-1.53301 -0.50251,-3.90972 -0.21313,-3.90972 0.16812,0 0.30053,0.43385 0.30281,0.99219 0.005,1.3306 0.35643,1.89605 0.75878,1.22237 0.27901,-0.46716 0.31099,-0.46893 0.57323,-0.0317 0.45455,0.7578 0.73741,0.53484 0.92721,-0.73086 0.17238,-1.14948 0.48108,-1.68202 0.72915,-1.25783 0.0652,0.11151 -0.0754,0.97609 -0.31244,1.92128 -0.30406,1.21231 -0.56742,1.74411 -0.89405,1.80534 -0.28155,0.0528 -0.46302,-0.0763 -0.46302,-0.32947 0,-0.22895 -0.11906,-0.41628 -0.26458,-0.41628 -0.14552,0 -0.26458,0.16402 -0.26458,0.36448 0,0.20047 -0.16489,0.50132 -0.36641,0.66857 -0.2909,0.24143 -0.39661,0.17995 -0.51297,-0.29833 z m 9.61063,-1.10954 c 0,-1.68158 -0.0229,-1.74184 -0.66146,-1.74184 -1.02409,0 -0.78035,-0.44259 0.33073,-0.60055 0.5457,-0.0776 1.20054,-0.22506 1.45521,-0.32773 0.31735,-0.12794 0.46302,-0.0626 0.46302,0.20765 0,0.21688 -0.24691,0.45889 -0.54869,0.53781 -0.49128,0.12847 -0.54161,0.31686 -0.48105,1.80076 0.0446,1.09302 -0.0388,1.69276 -0.24506,1.7615 -0.21944,0.0731 -0.3127,-0.41528 -0.3127,-1.6376 z m 7.41063,1.10243 c 10e-4,-0.32742 0.0774,-1.22039 0.16914,-1.98438 0.16934,-1.40982 0.55843,-1.82276 0.81023,-0.85989 0.17696,0.6767 0.39145,0.66863 0.82849,-0.0312 0.5176,-0.8288 0.82335,-0.31398 1.01175,1.7036 0.11642,1.24669 0.0758,1.76718 -0.13782,1.76718 -0.18194,0 -0.30284,-0.46909 -0.30284,-1.17501 0,-1.37258 -0.32779,-1.72638 -0.74701,-0.80628 -0.19214,0.42169 -0.43662,0.59369 -0.70015,0.49256 -0.30997,-0.11894 -0.40492,0.0374 -0.40492,0.66667 0,0.45214 -0.11907,0.82206 -0.26459,0.82206 -0.14552,0 -0.26355,-0.26789 -0.26228,-0.59531 z m 3.31411,-0.26458 c 0.27437,-1.28601 0.85479,-2.57969 1.15738,-2.57969 0.37175,0 0.89549,1.86893 0.74472,2.65746 l -0.12425,0.64983 -0.19674,-0.59531 c -0.26209,-0.79307 -0.83087,-0.75681 -1.03742,0.0661 -0.25372,1.01091 -0.76211,0.82535 -0.54369,-0.19843 z m -14.31281,-0.39688 c 0.33496,-1.89924 0.70562,-2.74539 1.16397,-2.65712 0.53696,0.10341 1.02526,1.09636 1.14404,2.32639 0.0986,1.02153 -0.38778,1.55717 -0.52634,0.57959 -0.11725,-0.82716 -1.19959,-0.70587 -1.32086,0.14802 -0.0465,0.32742 -0.20858,0.59531 -0.36018,0.59531 -0.17322,0 -0.21061,-0.36863 -0.10063,-0.99219 z m 1.73598,-1.22437 c 0,-0.20047 -0.16469,-0.50116 -0.36597,-0.66822 -0.28327,-0.23509 -0.40286,-0.20762 -0.52917,0.12154 -0.27103,0.7063 -0.18875,0.91115 0.36598,0.91115 0.29104,0 0.52916,-0.16401 0.52916,-0.36447 z m 4.64735,1.9797 c -0.0805,-0.13027 0.0315,-0.30513 0.24896,-0.38857 0.24016,-0.0922 0.39536,8.3e-4 0.39536,0.23686 0,0.42793 -0.41344,0.52528 -0.64432,0.15171 z m -8.88068,-1.7319 c 0,-0.98055 0.11509,-1.73541 0.26458,-1.73541 0.14552,0 0.26459,0.29766 0.26459,0.66146 0,0.41157 0.14993,0.66146 0.39687,0.66146 0.2701,0 0.39688,-0.27047 0.39688,-0.84667 0,-1.43739 0.51017,-0.47097 0.6975,1.32127 0.11518,1.10201 0.078,1.64206 -0.11307,1.64206 -0.15659,0 -0.32238,-0.3264 -0.36842,-0.72534 -0.11242,-0.97401 -1.00976,-1.18348 -1.00976,-0.23571 0,0.36588 -0.11907,0.73883 -0.26459,0.82876 -0.16611,0.10267 -0.26458,-0.48232 -0.26458,-1.57188 z m 8.73125,0.0696 c 0,-0.4008 0.24551,-0.86329 0.59531,-1.12144 0.58354,-0.43065 0.57438,-0.43641 -0.46302,-0.29088 -0.98501,0.13818 -1.02275,0.12055 -0.54474,-0.25439 0.64829,-0.50851 1.63347,-0.52086 1.82457,-0.0229 0.12437,0.32412 -0.32931,1.13057 -1.19282,2.12032 -0.1243,0.14247 -0.2193,-0.0441 -0.2193,-0.43075 z m -21.749547,-5.44041 c -0.65094,-0.14844 -0.80054,-0.90069 -0.41385,-2.08103 0.34654,-1.05777 1.21173,-1.44377 1.473807,-0.65752 0.0851,0.25532 -0.011,0.32099 -0.304647,0.20829 -0.56616,-0.21726 -1.0635,0.71481 -0.8453,1.58418 0.11433,0.45554 0.29245,0.6123 0.5733,0.50453 0.22409,-0.086 0.516757,-0.15635 0.650377,-0.15635 0.13362,0 0.25481,-0.38696 0.26932,-0.8599 0.0145,-0.47294 0.1217,-1.15755 0.23821,-1.52135 0.20322,-0.63458 0.2129,-0.63727 0.23821,-0.0661 0.0212,0.47921 0.18117,0.59531 0.82012,0.59531 0.61736,0 0.79375,-0.11759 0.79375,-0.52916 0,-0.29104 0.1007,-0.52917 0.22378,-0.52917 0.12308,0 0.18756,0.72926 0.14331,1.62058 -0.0883,1.77733 -0.36709,2.4891 -0.36709,0.93706 0,-0.90154 -0.0561,-0.97014 -0.79375,-0.97014 -0.59514,0 -0.79375,0.12215 -0.79375,0.48816 0,0.77336 -1.116467,1.61265 -1.905797,1.43266 z m -43.598921,-1.57451 c 0.0064,-2.73615 0.574712,-3.53842 1.34873,-1.90407 l 0.390014,0.82353 0.720076,-1.08811 c 0.396041,-0.59846 0.832053,-1.08811 0.968915,-1.08811 0.136862,0 0.321501,0.44649 0.410308,0.99219 0.08881,0.5457 0.275265,1.57511 0.414351,2.28757 0.237879,1.21852 0.170761,1.76437 -0.174492,1.41912 -0.0835,-0.0835 -0.286278,-0.93678 -0.450616,-1.89618 -0.164338,-0.9594 -0.377802,-1.74436 -0.474364,-1.74436 -0.09656,0 -0.439649,0.62508 -0.762416,1.38906 l -0.58685,1.38906 -0.440613,-1.10252 c -0.669017,-1.67403 -0.837489,-1.65054 -0.837489,0.11677 0,0.88879 -0.119063,1.68957 -0.264584,1.7795 -0.164932,0.10194 -0.263222,-0.41535 -0.26097,-1.37345 z m 10.57972,-0.36297 v -1.83545 h 0.926042 c 0.509323,0 0.926042,0.11906 0.926042,0.26458 0,0.14552 -0.297657,0.26458 -0.661459,0.26458 -0.793338,0 -0.87581,0.42548 -0.128449,0.66268 0.293154,0.0931 0.467935,0.27446 0.388401,0.40315 -0.07953,0.12869 -0.319387,0.16691 -0.533008,0.0849 -0.281813,-0.10815 -0.388402,0.0451 -0.388402,0.55855 0,0.5524 0.101554,0.67599 0.463021,0.56351 0.449037,-0.13973 1.367938,0.23337 1.116817,0.45346 -0.06855,0.0601 -0.571114,0.17813 -1.116817,0.26234 l -0.992188,0.15311 z m 3.997589,0.48375 c 0.03191,-0.78882 0.161633,-1.7143 0.288264,-2.05661 0.213213,-0.57638 0.262261,-0.59037 0.663332,-0.1893 0.398874,0.39887 0.457852,0.39924 0.746404,0.005 0.496466,-0.67896 1.183009,-0.23155 1.187192,0.77368 0.002,0.47751 0.0754,1.13609 0.16315,1.46351 0.0935,0.34891 0.04102,0.59531 -0.126791,0.59531 -0.157481,0 -0.36889,-0.62237 -0.469797,-1.38304 -0.188661,-1.4222 -0.379112,-1.32015 -0.749682,0.40168 -0.205181,0.95336 -0.667081,0.67046 -0.691173,-0.42331 -0.01568,-0.71168 -0.05431,-0.76117 -0.245987,-0.31512 -0.125065,0.29104 -0.235759,0.9091 -0.245987,1.37345 -0.01023,0.46435 -0.144225,0.92192 -0.297772,1.01682 -0.185191,0.11446 -0.259643,-0.31029 -0.221153,-1.26169 z m 9.760746,0.59121 c 0,-0.67235 -0.102166,-0.79375 -0.668007,-0.79375 -0.473276,0 -0.743083,0.19747 -0.925546,0.67738 -0.141647,0.37256 -0.37427,0.60524 -0.51694,0.51706 -0.158247,-0.0978 -0.04684,-0.69726 0.285706,-1.53727 0.299808,-0.75733 0.608796,-1.58532 0.686639,-1.83998 0.216163,-0.70717 0.597729,-0.55485 0.994177,0.39688 0.526536,1.26402 0.80079,3.37343 0.438596,3.37343 -0.162044,0 -0.294625,-0.35718 -0.294625,-0.79375 z m -0.382627,-1.61055 c 0.09777,-0.1582 0.0563,-0.40911 -0.09217,-0.55757 -0.183524,-0.18353 -0.365459,-0.0914 -0.568338,0.28764 -0.24083,0.44999 -0.223048,0.55757 0.09217,0.55757 0.214813,0 0.470565,-0.12944 0.568338,-0.28764 z m 2.940266,2.22792 c -0.399156,-0.39916 -0.128349,-0.59453 0.617361,-0.44539 0.621431,0.12429 0.79375,0.0654 0.79375,-0.27119 0,-0.28116 -0.226801,-0.42995 -0.655359,-0.42995 -0.415169,0 -0.821905,-0.25418 -1.109781,-0.69354 -0.433171,-0.6611 -0.431091,-0.71059 0.04447,-1.05833 0.574252,-0.4199 2.249835,-0.49454 2.249835,-0.10022 0,0.14552 -0.396875,0.26459 -0.881944,0.26459 -0.48507,0 -0.953116,0.0712 -1.040103,0.15816 -0.355207,0.3552 0.175373,0.90017 0.876407,0.90017 0.894762,0 1.152308,0.33274 0.933217,1.20566 -0.123972,0.49395 -0.33788,0.64642 -0.906854,0.64642 -0.409536,0 -0.823987,-0.0794 -0.920999,-0.17638 z m 11.636107,-0.0258 c -0.11438,-0.18507 -0.25516,-2.48232 -0.19029,-3.10507 0.0589,-0.56512 0.54166,0.57268 0.56135,1.32292 l 0.0208,0.79375 0.26348,-0.66072 0.26348,-0.66072 0.45748,0.60649 c 0.59108,0.78362 0.8341,0.512 0.8341,-0.93226 0,-0.75845 0.0984,-1.10134 0.28325,-0.98709 0.31035,0.19181 0.0952,2.03607 -0.33243,2.84982 -0.20683,0.39357 -0.32415,0.42048 -0.6509,0.1493 -0.32197,-0.26721 -0.44478,-0.25778 -0.63895,0.0491 -0.1322,0.20892 -0.24219,0.46916 -0.24442,0.5783 -0.005,0.25925 -0.46612,0.25647 -0.62697,-0.004 z m -30.167966,-0.88918 c -0.241394,-1.20697 -0.202118,-2.34818 0.08082,-2.34818 0.135399,0 0.290459,0.26789 0.344577,0.59531 0.0923,0.55846 0.130299,0.54218 0.613715,-0.26291 0.283425,-0.47202 0.604615,-0.85897 0.713756,-0.85989 0.348593,-0.003 0.213176,0.60183 -0.24915,1.11269 -0.420393,0.46453 -0.420393,0.54062 0,1.25228 0.628387,1.06378 0.543418,1.62073 -0.113022,0.74085 -0.588471,-0.78879 -1.148399,-0.73215 -0.887532,0.0898 0.08849,0.2788 0.04868,0.5069 -0.08846,0.5069 -0.137137,0 -0.323755,-0.37207 -0.414705,-0.82682 z m 9.94172,0.50932 c -0.174625,-0.17462 -0.3175,-0.94853 -0.3175,-1.71979 v -1.40229 h 0.926041 c 0.509323,0 0.926042,0.11906 0.926042,0.26458 0,0.14552 -0.231098,0.26458 -0.513552,0.26458 -0.664173,0 -0.965677,0.4858 -0.429259,0.69164 0.537617,0.2063 0.534063,0.63128 -0.0053,0.63128 -0.707259,0 -0.251154,0.63918 0.63809,0.89421 0.461542,0.13237 0.839167,0.34251 0.839167,0.46698 0,0.34497 -1.702838,0.26972 -2.06375,-0.0912 z m 11.159795,-0.66608 c 0.177697,-1.18118 0.667457,-2.456 0.943545,-2.456 0.09079,0 0.358408,0.32742 0.594713,0.7276 0.51075,0.86495 0.951253,2.98515 0.53597,2.57969 -0.149046,-0.14552 -0.313946,-0.50271 -0.366444,-0.79375 -0.05737,-0.31807 -0.303657,-0.52917 -0.617371,-0.52917 -0.313714,0 -0.559997,0.2111 -0.617371,0.52917 -0.202986,1.12533 -0.642941,1.07181 -0.473042,-0.0575 z m 1.222705,-1.39767 c 0,-0.14552 -0.119063,-0.26458 -0.264584,-0.26458 -0.14552,0 -0.264583,0.11906 -0.264583,0.26458 0,0.14552 0.119063,0.26458 0.264583,0.26458 0.145521,0 0.264584,-0.11906 0.264584,-0.26458 z m 2.813074,1.28603 -0.691401,-1.15374 -0.0025,0.99219 c -0.0014,0.5457 -0.121565,0.99219 -0.267086,0.99219 -0.145521,0 -0.264583,-0.65485 -0.264583,-1.45521 0,-0.80037 0.109352,-1.45521 0.243004,-1.45521 0.133652,0 0.512697,0.43637 0.842322,0.96972 l 0.599319,0.96972 0.32056,-1.03587 0.320559,-1.03586 0.02369,1.32292 c 0.03587,2.00282 -0.29814,2.26707 -1.123881,0.88915 z m 2.103892,0.49991 c -0.517771,-2.56453 -0.33232,-3.0318 1.06416,-2.68131 1.27886,0.32097 1.51346,1.65383 0.46253,2.6278 -0.87161,0.80777 -1.37087,0.82527 -1.52669,0.0535 z m 1.56532,-1.26021 c 0,-0.70972 -0.77631,-1.31046 -1.17641,-0.91035 -0.14572,0.14572 -0.19234,0.71236 -0.1036,1.2592 0.15306,0.9432 0.19007,0.9752 0.72068,0.62289 0.30763,-0.20427 0.55933,-0.64155 0.55933,-0.97174 z m 10.847917,1.59094 c 0.0899,-0.14552 0.21603,-0.26459 0.2802,-0.26459 0.0642,0 0.11668,0.11907 0.11668,0.26459 0,0.14552 -0.12609,0.26458 -0.2802,0.26458 -0.15411,0 -0.20662,-0.11906 -0.11668,-0.26458 z m -42.839124,-0.99219 c 0.559299,-3.08909 2.023401,-3.16408 2.582849,-0.13229 0.172715,0.93598 -0.205521,1.20415 -0.439018,0.31125 -0.207915,-0.79507 -1.603797,-0.61848 -1.722584,0.21792 -0.0465,0.32742 -0.200725,0.59531 -0.342718,0.59531 -0.153878,0 -0.185601,-0.40082 -0.07853,-0.99219 z m 1.961003,-1.09208 c 0,-0.1277 -0.17029,-0.37352 -0.378423,-0.54625 -0.302668,-0.25119 -0.436947,-0.20471 -0.670768,0.23218 -0.259658,0.48518 -0.217348,0.54625 0.378424,0.54625 0.368922,0 0.670767,-0.10448 0.670767,-0.23218 z m 34.660414,0.77697 c 0,-0.7362 0.11907,-1.33854 0.26459,-1.33854 0.14552,0 0.26458,0.52876 0.26458,1.17501 0,0.64626 -0.11906,1.2486 -0.26458,1.33854 -0.16308,0.10078 -0.26459,-0.35003 -0.26459,-1.17501 z"
       id="path1"
       sodipodi:nodetypes="ccccccccccccccccccsssssssssssssssssssscsssssssssssscssscccsssssscccsssssssssssssssscsscsscsssssscsssssssssscssssssssscsccssssssscssssssssssssssssssssssssssssssscsssscccssssscsssssscsssssssssssscssssssssssssccssssscsccssssssssssssssssssssssscsccsssscsccssssssssssccsscssssscscccccsscssssccsssscscsscsssssscsssssssssscscscsssssssssssssscscsscsssssssssssssscsccsssssssssccsscssccsscsssssssssscssssssssssssscssssscccsscssssscssscssscccscsssssssscssscccssscscssssccssscsssssssssssssssssssssscsscssssssscssscccccccsssssscccsssscssssssscscsssssssccsssssssssssssscccsssscccsscsssssssssscssscssssssssssssssss" /><text
       xml:space="preserve"
       style="font-style:normal;font-variant:normal;font-weight:normal;font-stretch:normal;font-size:2.82223px;line-height:1.25;font-family:'xkcd Script';-inkscape-font-specification:'xkcd Script';stroke-width:0.264583"
       x="55.525776"
       y="92.810715"
       id="text1"><tspan
         sodipodi:role="line"
         id="tspan1"
         style="font-style:normal;font-variant:normal;font-weight:normal;font-stretch:normal;font-family:'xkcd Script';-inkscape-font-specification:'xkcd Script';stroke-width:0.264583"
         x="55.525776"
         y="92.810715" /></text><text
       xml:space="preserve"
       style="font-style:normal;font-variant:normal;font-weight:normal;font-stretch:normal;font-size:4.93889px;line-height:1.25;font-family:'xkcd Script';-inkscape-font-specification:'xkcd Script';stroke-width:0.264583"
       x="50.23114"
       y="94.538872"
       id="text2"><tspan
         sodipodi:role="line"
         id="tspan2"
         style="font-style:normal;font-variant:normal;font-weight:normal;font-stretch:normal;font-size:4.93889px;font-family:'xkcd Script';-inkscape-font-specification:'xkcd Script';stroke-width:0.264583"
         x="50.23114"
         y="94.538872">imports: [CommonModule]</tspan></text><text
       xml:space="preserve"
       style="font-size:4.93889px;line-height:1.25;font-family:sans-serif;stroke-width:0.275385"
       x="49.566456"
       y="64.842842"
       id="text3"
       transform="scale(1.0408283,0.96077327)"><tspan
         sodipodi:role="line"
         id="tspan3"
         style="font-style:normal;font-variant:normal;font-weight:normal;font-stretch:normal;font-size:4.93889px;font-family:'xkcd Script';-inkscape-font-specification:'xkcd Script';stroke-width:0.275385"
         x="49.566456"
         y="64.842842">MIGRATING TO STANDALONE COMPONENTS</tspan></text></g></svg>
